<svg width="36" height="39" viewBox="0 0 36 39" fill="none" xmlns="http://www.w3.org/2000/svg">
<path d="M3.9 39C2.8275 39 1.9097 38.6184 1.1466 37.8553C0.3835 37.0922 0.0013 36.1738 0 35.1V7.8C0 6.7275 0.3822 5.8097 1.1466 5.0466C1.911 4.2835 2.8288 3.9013 3.9 3.9H5.85V0H9.75V3.9H25.35V0H29.25V3.9H31.2C32.2725 3.9 33.1909 4.2822 33.9553 5.0466C34.7197 5.811 35.1013 6.7288 35.1 7.8V35.1C35.1 36.1725 34.7184 37.0909 33.9553 37.8553C33.1922 38.6197 32.2738 39.0013 31.2 39H3.9ZM3.9 35.1H31.2V15.6H3.9V35.1ZM3.9 11.7H31.2V7.8H3.9V11.7Z" fill="black"/>
</svg>
